<svg viewBox="0 0 1404.4 313.3" height="1184" width="5308.1" xmlns="http://www.w3.org/2000/svg">
  <g transform="translate(21.2 21.2)">
    <path d="M914 87.2c-2 0-4 .4-5.8 1.3l-.1.1-35.7 22.5a8.7 8.7 0 0 0-3.3 3.7l-1.7-2.4c-3-3.7-6.7-6.6-11.3-6.6a14 14 0 0 0-5 1.1h.1l-3.3 1-2-.2a84.7 84.7 0 0 0-13.6-1.8 32.2 32.2 0 0 0-26 11.4 29 29 0 0 0-7 19.3c0 7 2.3 13.2 6.8 18.5l.3.3c-6.8.3-10.1 5.6-10.1 12.3 0 4 1.2 8.2 3.1 12.8a34 34 0 0 0 7.2 10.8 14 14 0 0 0 9.3 3.2l4-.4h.2l1.4-.2 7.8.8c5.3.7 9.3 1 11.6 1 9 0 16.7-2.3 23.2-7.3 7.5-5.8 11.5-13 11.5-22.2a25 25 0 0 0-7.4-18.1c-1.6-1.6-3.4-3-5.3-4.5a13 13 0 0 0 8.5-3.3c2.5-2.5 3.7-5.3 3.8-8.7l1.7.2h5.3V165a29 29 0 0 0 9.2 22.4 33.2 33.2 0 0 0 23.6 8.4 45 45 0 0 0 30-10.6l.3-.3c1.6 3.6 4.8 6.3 8.9 7.7a74.2 74.2 0 0 0 22.5 2.7c9.8 0 17.5-.6 23-1.7 3.3-.7 6.3-2.2 8.7-4.6 2.4-2.6 3.7-5.8 3.7-9.3 0-6.4-4.6-10.5-10.7-12.3l-2-.7v-.5.2a93 93 0 0 1-.8-15c0-2.8.2-3.3.3-4.8 2 1.7 4 3.3 5.4 4v.1h.1a22.8 22.8 0 0 0 24.5-3.8c-.2 1.5-.4 3-.4 4.5a44 44 0 0 0 15.2 33.7 45.5 45.5 0 0 0 30.8 10.7c11.9 0 22.4-3.4 31.6-10.3a24 24 0 0 0 7.4-8.5l1.6 4.2c2 3.8 4.8 6.9 8.2 9.3 5.3 3.7 12 5.3 19.5 5.3a34 34 0 0 0 20.7-6.7l.4-.3a21 21 0 0 0 16.5 7 29 29 0 0 0 21.9-10 13 13 0 0 0 8.4 7.3h.1a66.8 66.8 0 0 0 19.2 2.2c6.5 0 12.6-.8 18.3-2.3 2.8-.8 5.2-2 7.1-3.8a13 13 0 0 0 4.5 3.5 62.5 62.5 0 0 0 21.6 2.6c12.2 0 22-2 26.6-7.1 1.8 1.9 4.2 3.3 6.8 4.3a52 52 0 0 0 18.6 2.8c16.4 0 28.6-3.8 28.6-15.2a9 9 0 0 0-1.2-4.6c-.6-1-1.5-2.3-2.7-3.7a8 8 0 0 1-2-5.3l.1-2.1v-.1l.1-9.3c0-6.8 0-10.8.2-11.8v-.2l.1-8.5c0-8.8-2.5-16.1-8.5-21.2a29 29 0 0 0-19.8-6.8 37 37 0 0 0-26.2 11c-4.5-7.5-12.1-11-21.8-11a36.5 36.5 0 0 0-25 10c-.5-5.5-3.4-10-9.5-10-7.2 0-18 2.7-31.2 7.4-6.5 2.4-11.6 6.6-11.6 13.2 0 1.7.3 3.7 1.5 5.5v.1l.1.1a23 23 0 0 0 4 3.8h.1c.6.4 1 1 1.2 1.7v.1c.4 1.4.6 4.1.6 9 0 6.6-.3 13.1-.8 19.3a8.5 8.5 0 0 1-1.5 4.2 7.8 7.8 0 0 0-6.7-6.8l-1-.1c-.6-1.3-1.1-5.4-1.1-13.2l.1-11.6c0-5.9-.7-11-2.4-15a25 25 0 0 0-8.7-10.5 43 43 0 0 0-26-7.9 67 67 0 0 0-31.7 8v.1a32.2 32.2 0 0 0-9.8 7.8v.1a16.8 16.8 0 0 0-4.1 10.7v.8a35.8 35.8 0 0 0-12.3-17.8 49 49 0 0 0-47.5-5.8 46.8 46.8 0 0 0-19.6 15l-.7 1.2a24.6 24.6 0 0 0-6.2-13.3 20.9 20.9 0 0 0-15.3-6.1c-7 0-12.6 2.7-17.1 7.6-.4-1.7-1-3.3-2-4.5-2-2.7-6-3.2-9-3.2h-.1c-6.2 0-13.6 1.4-21.8 3.8a51.1 51.1 0 0 0-13.8 5.9c0-2.4-.2-5-2-7.2-2.1-2.7-5.3-3-7.8-3h-13v-9c0-2-.1-4.5-1.7-6.5a8 8 0 0 0-6.8-3.2zm13 3.2.2.1-.3-.4.1.3zm22.5 18.5v-.1zm46.8.7v.1-.2.1zm39 10.6zm161.9 4v.1zm68-14.4zm95.7 65.7.2.3-.4-.6.2.3zm-101 17.2zm-64.7-1zM945 185.2zm-81 3.2zm87-72zm202.9 13.2c.4 0 .4-.1.7.6.7 1.4 1.2 4.4 1.2 9.4h-1.5a74 74 0 0 0-10.7.8c2-1.8 4-4 6-6.5h-.1c1.7-2.3 2.6-3.4 3.4-4 .3-.2.6-.3 1-.3zm-311.5 2.2 1.7 1-1.7-1zm104 .2a14 14 0 0 0 7.8 6.3s.2.7.2 2.4a175 175 0 0 1-1.2 25.2v.1c0 .8-.2 1-.3 1.1l-1.3 1c-.4-1.4-1-2.8-1.9-4-1.7-2.5-4.1-4.6-7.8-4.6-1.9 0-3.5.5-5 1.4h.1c-3 1.6-4.6 2-5.4 2-.5 0-1.1-.2-1.7-.8a7 7 0 0 1-1.1-4.4v-24.6h12.4a12 12 0 0 0 5.1-1.1zm7.5 6.2zm164.4.5c.6 1.3 1.5 2.5 2.6 3.6 2 1.9 4.5 2.7 7 3.2a35.2 35.2 0 0 0-7.6 5.4 25.4 25.4 0 0 0-7.4 12.5l-.7-1.3a13.6 13.6 0 0 0-4.1-3.4c3.1-.6 5.6-2.5 7.5-5.3 2-3.3 3-7 3-11.2a27 27 0 0 0-.3-3.5zm189.7.4c1.1 0 1.5.2 1.9 1.3.7 2.1 1.1 6 1.1 12.8 0 11.9-1 17.5-1.3 18l-1.4 2a17 17 0 0 1-2.2-4.2 154.2 154.2 0 0 1 0-28.3c0-.5.3-.9.7-1.2a2 2 0 0 1 1.2-.4zm-50.3 1c.6 0 2.4 1 2.4 9.9 0 5.6-.2 11.3-.5 16.8a15 15 0 0 1-.5 3.8v.2l-.8.8-1.5 1.6-.1-.3a9.2 9.2 0 0 1-1.3-3.7c-.2-1.4-.3-4.8-.3-10.4 0-7.5.3-13 .9-16.7.3-2 .7-2 1.7-2zm-228.4 6.4zm-215 11.3.2.2h-.1l-.1-.2zm259.4 1.2h25.6l-2.5 1.4a24 24 0 0 1-12.7 4c-2.8 0-5.6-1-8.4-3.2-1-.8-1.5-1.5-2-2.2zM826 169l2 1c-.4 0-.8 0-1.2-.3-.2 0-.6-.5-.8-.7zm378.5 14.4z" fill="#fff"/>
    <circle cx="135.5" cy="135.5" r="135.5" fill="#d1b139"/>
    <circle cx="135.5" cy="135.5" r="122.8" fill="#ed1c24"/>
    <circle cx="135.5" cy="135.5" r="110.1" fill="#561f00"/>
    <path d="M134.4 140.4a43 43 0 0 0-28.2 9.8 31.1 31.1 0 0 0-8.4 10.4 28.2 28.2 0 0 0 5.5 33h-.9a10 10 0 0 0-7.6 3.7 11.6 11.6 0 0 0-2.2 7.5c0 4.8.9 9.6 2.6 14.5 1.8 4.9 3.7 8.6 7.2 11a44 44 0 0 0 14.2 5c6.2 1.3 12 2 17.7 2 12.5 0 23.2-3 31.5-9.5a31.2 31.2 0 0 0 12.6-25.2c0-9.6-4.8-17.9-13.1-23.6 3.1 0 6.3-1.6 8.3-4a13 13 0 0 0 3.3-8.9 26 26 0 0 0-5.5-15.1c-3.4-5-7.3-8.6-12.5-8.6-1.3 0-2.6.2-3.8.7l-2.2.7h-.5c-7-2.2-13-3.4-18-3.4zm5.3 24.9c3.3 0 7 1.5 11.4 5.6l3 2.7-11.2-3.4c-2.7-.8-4.5-1.8-5.3-2.5-.8-.7-.7-.7-.7-1.1 0-.6 0-.5.2-.7.5-.3 1.1-.6 2.6-.6zm-26.1 36.4 2.2 1.2c3.5 1.7 8 3.5 14 5.4a4.7 4.7 0 0 0 .1 0c3 .9 5 2 5.7 2.5.6.5.4.3.4.5l-.5.4c-1 .5-2.5 1-5 1a19 19 0 0 1-8.3-1.9 12.1 12.1 0 0 1-5.3-4l-3.3-5z" fill="#fff"/>
    <path d="M134.4 145a38 38 0 0 0-25.2 8.8 26.3 26.3 0 0 0-9.7 19.5 26 26 0 0 0 9.7 19.6c2.7 2.3 5.6 4.2 8.7 5.8 3 1.5 7.5 3.2 13.4 5a22 22 0 0 1 7.2 3.4 5.3 5.3 0 0 1 2.2 4.2c0 1.8-1 3.3-2.8 4.4a14.5 14.5 0 0 1-7.4 1.7c-3.5 0-7-.8-10.3-2.3a16.8 16.8 0 0 1-7.2-5.7 90 90 0 0 0-6.1-8.7c-1.4-1.6-3-2.4-4.5-2.4-1.6 0-2.8.6-3.9 2-.8 1-1.2 2.5-1.2 4.5 0 4.2.8 8.5 2.3 13 1.6 4.3 3.4 7.2 5.4 8.5a40 40 0 0 0 12.6 4.4 80.6 80.6 0 0 0 16.7 1.9 45 45 0 0 0 28.6-8.5 26 26 0 0 0 10.7-21.5c0-9.9-5.2-17.3-15.7-22.4-2.4-1.2-7.8-3-16.3-5.5-6.3-1.8-9.4-4.5-9.4-8.1 0-1.8.6-3.3 2-4.4a8.7 8.7 0 0 1 5.5-1.6c4.8 0 9.7 2.3 14.6 6.9 3.5 3.2 5.7 5.2 6.8 5.8 1 .7 2.3 1 4 1 2 0 3.6-.8 5-2.3 1.4-1.6 2-3.6 2-5.9 0-4-1.5-8-4.6-12.4-3-4.4-5.9-6.6-8.6-6.6a6 6 0 0 0-2.1.4c-2.1.7-3.3 1.1-3.7 1.1-.5 0-1.2-.1-2-.4a60 60 0 0 0-16.7-3.1z" fill="#ed1c24"/>
    <path d="M138.8 33.6c-7 0-14 1.5-20.5 4.4A52.2 52.2 0 0 0 97 54.4a45.5 45.5 0 0 0-2 52.9 47 47 0 0 0 20.9 18.2c7.4 3.3 14.9 5 22.5 5 7.2 0 14.3-1.6 21-4.8 2.3-1.1 4.2-1.7 5-1.9 3-.6 5.2-1 7.5-2.8 2.7-2.3 4.8-5.1 6.4-8.6a23 23 0 0 0 2.7-10c0-2.8-.9-5.5-2.6-7.7a9.8 9.8 0 0 0-7.4-3.9c-3.3 0-5.1 1.7-7 3.5a4.7 4.7 0 0 0-.1 0c-1.1 1.2-3 2.3-5.9 3.3-2.7 1-5.5 1.4-8.3 1.4-7.7 0-12.7-2.8-16.8-9.5a31.7 31.7 0 0 1-4.7-17c0-4.3 1-7.2 2.7-9.3 1.6-2 3.3-2.8 6.4-2.8a16.5 16.5 0 0 1 12.9 6.2 51 51 0 0 1 3.9 6.3c1.4 2.7 3 5 5.2 6.5 2.3 1.5 5 2.2 7.8 2.2 3.2 0 6.3-1 8.9-2.7 4.7-3.2 7.2-8.8 7.2-14.8 0-8-2.3-15.1-7-20.7a12.3 12.3 0 0 0-9.3-4.7 9 9 0 0 0-2.8.3l-2.3.4s-1.7-.4-3.7-1.4a45.2 45.2 0 0 0-19.4-4.4z" fill="#fff"/>
    <path d="M138.8 38.3c-6.4 0-12.6 1.4-18.6 4-8 3.4-14.4 8.4-19.3 15a40.5 40.5 0 0 0-1.8 47.5 42 42 0 0 0 18.8 16.4 49.6 49.6 0 0 0 20.6 4.6 44 44 0 0 0 19-4.3 27 27 0 0 1 6.2-2.3c2.7-.5 4.5-1.2 5.3-1.9 2-1.6 3.8-4 5.2-7a19 19 0 0 0 2.2-8c0-1.8-.6-3.4-1.6-4.7-1-1.4-2.2-2-3.7-2-1 0-2.2.7-3.8 2.1a19.9 19.9 0 0 1-7.6 4.4 30.3 30.3 0 0 1-10 1.6c-9 0-15.9-4-20.7-11.8a36.6 36.6 0 0 1-5.4-19.4c0-5.1 1.2-9.2 3.7-12.2 2.5-3.1 5.9-4.6 10.1-4.6a21.5 21.5 0 0 1 16.6 8c1 1.4 2.5 3.7 4.3 7 1.2 2.3 2.5 3.9 3.8 4.8 1.3.9 3 1.4 5.1 1.4a11 11 0 0 0 6.3-1.9c3.4-2.3 5-6 5-11 0-7-1.9-12.9-5.8-17.7-1.6-2-3.5-3-5.7-3a8 8 0 0 0-1.7.3l-3.6.5c-1 0-2.9-.6-5.5-1.8a41 41 0 0 0-17.4-4z" fill="#ed1c24"/>
    <path d="M1478 364a240 240 0 0 0-96.8 20.4 244.6 244.6 0 0 0-99.7 77.5 211.8 211.8 0 0 0-44.4 130.7c0 41.4 12 80.7 35.2 117.8a218.8 218.8 0 0 0 98.1 85.9 255 255 0 0 0 105.8 23.7c34.4 0 67.3-7.6 98.9-22.7 11.6-5.6 19.4-8.3 24.6-9.3h.2c13.5-2.7 27.1-7.1 34.2-12.9h.1l.2-.2c12.1-10.2 22-23.7 29.7-39.7a108.8 108.8 0 0 0 12.3-46.8c0-13-3.5-24.7-11.5-35a40 40 0 0 0-33.4-17.5c-12.2 0-23.4 7.9-32 16v.1l-.1.1c-6 5.8-15 11.2-28.8 15.9a124.3 124.3 0 0 1-40.5 6.8c-35.7 0-62.6-15-82-46.4a154.3 154.3 0 0 1-22.5-81.8c0-21 5-35.8 13.1-45.7a40 40 0 0 1 32.5-14.6 83.2 83.2 0 0 1 63 30.6l.1.1v.1c4.6 5.7 10.4 15 18.7 30.3v-.2a83.2 83.2 0 0 0 24.4 30 61.6 61.6 0 0 0 35.6 9.9c15 0 28.4-3.9 40.7-12.2h.1c23.1-15.6 33.1-39.1 33.1-68.4 0-6.9-.4-13.5-1.1-20a91 91 0 0 0 9 5l.5.6.5.6s-.3-.7.2 3.4v.3a699 699 0 0 1 3.4 84.5c0 53.3-1.4 90.3-4.2 112.6v.1c-2.5 20.2-7 28.6-7 28.6l.1-.1a95.7 95.7 0 0 0-20.2 17.4 39.5 39.5 0 0 0-7.4 24.2c0 41.8 51.4 54.3 120.8 54.3 46.4 0 84.4-7.6 99.2-29.7 13.7 22.6 52.5 29.7 99.7 29.7 65.8 0 115.5-11.1 115.5-51.7 0-13.8-6-23.8-16-31.8h-.1a54.6 54.6 0 0 1-10.4-9.7c-.3-.9-1.1-3.8-1.3-11.4l-2.6-105.8v.1c-.4-22.1-2.5-41-6.7-54.8v.2-.3a89.4 89.4 0 0 0-22.2-38c-22.7-23.5-52.8-34.5-88.4-34.5a105 105 0 0 0-82.8 37.6l3.5-110.6c.9-23.2-15-35.4-36.4-35.4-23.2 0-53.5 5.4-89.4 15.4-26.4 7.1-47.2 14.7-58.5 22.2a51.2 51.2 0 0 0-17.4 18.6c-3.8-6.5-8-12.8-12.9-18.7a52 52 0 0 0-42.1-21.4c-4.4 0-8.8.4-13 1.4a67.5 67.5 0 0 1-12.5 2.1s-6.2-1.5-17.6-6.9A211.4 211.4 0 0 0 1478 364zm187 289.3v.2l-.2-.3.1.1zm-392.7 57.1zM2608 372.2c-27.2 0-69 10.5-120.6 29.6a136.6 136.6 0 0 0-40.6 21.4 45.4 45.4 0 0 0-17.6 35.2c0 24.3 19.1 36.8 41.3 39.8h.9a211 211 0 0 1 1.7 32.9v64.2c.2 56.7-1.9 97-6.2 123.2l-.3 1.6s-2.8 2.3-8.9 6.2l-.1.1-.2.1c-12.5 8.4-21.2 19.4-21.2 36 0 12 4.1 22 11.2 31.3l.1.1.1.1a53 53 0 0 0 27 18.5h.2c14.5 4.1 42.3 5.8 81.6 5.8 33.8 0 62.2-3.6 79.2-10.7 20.7-8.6 34-25.5 34-48l-.1-1.2 25.5 32.7a52.6 52.6 0 0 0 43.3 21h95.2a85 85 0 0 0 47.4-12h-.1l.2-.2c1.7-1 3.3-2.3 4.8-3.5a54 54 0 0 0 22.5 12.6h.2c22.3 6 51.9 9 87 9 57.7 0 102-10.6 113.1-41.6a102 102 0 0 0 20 26.4l.2.1a50.7 50.7 0 0 0 35 12.1c3.5 0 9-.5 15-1.3h.3l.4-.1c2.5-.5 4.2-.6 5.3-.6 0 0 10.8 1 29.4 3 20.3 2.6 35.4 4 44.1 4 33.7 0 62.9-8.9 87.5-27.9 28.6-21.8 43.6-49.4 43.6-83.8a94 94 0 0 0-28.1-68.6 192 192 0 0 0-19.9-17c12-.4 23-4.2 32-12.5v-.2h.2a44.1 44.1 0 0 0 14.2-32.5c2.2.3 4.6.8 6.5.8h20.1v125.3c0 34.4 10.9 62.2 34.8 84.6v.1c23.5 21.8 53.5 31.7 89 31.7 43.8 0 81.9-13.2 113.6-40.2l1-1a54.2 54.2 0 0 0 33.6 29c20.8 7 49.8 10.2 85.2 10.2 36.9 0 66-2 86.7-6.3 12.7-2.7 24-8.2 32.9-17.4l.1-.1.1-.2c9-9.6 13.9-21.4 13.9-34.7 0-24.3-17.6-39.8-40.6-46.7h-.1a58.4 58.4 0 0 1-7.2-2.4c0-.2 0-.7-.4-2l.2.6a349 349 0 0 1-2.9-56.4c0-10.7.6-12.8 1-18.4 7.6 6.6 14.9 12.5 20.6 15.5h.2v.1a75 75 0 0 0 34.4 7.5 84 84 0 0 0 58-22c-.5 5.6-1.2 11.1-1.2 17 0 27.7 6.5 54 19.5 79a166.3 166.3 0 0 0 38 48.3h.1c32 27.4 70.8 40.6 116.2 40.6 44.9 0 84.7-12.8 119.5-38.8a90.5 90.5 0 0 0 28-32.4c1.8 5.4 3.4 10.7 6.1 15.9a97.6 97.6 0 0 0 31 35.3c20 14 45 20 73.5 20 29.1 0 55.1-8.3 78.3-25.2l.1-.1.2-.1c1.7-1.4.7-.7 1.2-1.2a78.9 78.9 0 0 0 62.3 26.6c19.8 0 38.5-5.3 56-15.6 10.4-6 19-13.5 26.8-21.9 5.2 13.4 17.4 22.3 32 27.3l.1.1c16.1 5.4 42 8 72.6 8 24.7 0 47.8-2.7 69.2-8.6a66.4 66.4 0 0 0 26.8-14.2 45 45 0 0 0 17.1 13c16 6.9 44.7 9.9 81.7 9.9 46 0 83.3-7 100.6-26.7 6.6 7 15.6 12.3 25.4 16.2 19 7.4 43 10.8 70.3 10.8 62 0 108.2-14.7 108.2-57.5a34 34 0 0 0-4.7-17.3l.8 1-1.3-2.2.4 1c-2.2-4-5.6-8.7-10-14h-.1a30.5 30.5 0 0 1-7.1-20.1l.2-7.8v-.4c.2-6.9.3-18.7.3-35.2 0-25.5.3-40.6.6-44.4v-1c.4-15 .6-25.7.6-32.2 0-33.2-9.7-60.9-32.1-80.2-20.4-17.7-45.6-25.6-74.9-25.6-37.4 0-70.4 14.4-99 41.6-17.2-28.3-46-41.6-82.6-41.6a138 138 0 0 0-57.4 12.5h.1-.2.1c-14.3 6.3-26.3 15-37.1 25-2-20.2-13-37.5-35.9-37.5h-.2c-27 .2-67.7 10.1-117.6 28.1h-.2c-24.4 9.1-43.8 25-43.8 49.9a37 37 0 0 0 5.7 20.7l.3.5.4.4c3 4.2 9 9.4 15.2 14.2h.1l.2.1c2.1 1.6 3.5 3.7 4.1 6.5l.1.3.1.3a152 152 0 0 1 2.2 33.4c0 25.4-1 49.9-3.1 73.4a32 32 0 0 1-5.6 15.7 29.3 29.3 0 0 0-25.3-25.6l-3.5-.5c-2.4-5-4.5-20.4-4.5-50l.6-43.6v-.1c0-22.1-2.7-41.3-9.2-56.5a95.1 95.1 0 0 0-32.7-40 163.4 163.4 0 0 0-98.2-29.6c-42 0-82 10.2-120.1 30.5h-.2a123.6 123.6 0 0 0-36.8 29.6v.1l-.1.1a64.8 64.8 0 0 0-15.5 40.6l.3 3c-2.7-8.1-5.8-16.2-10.3-24.2a146.5 146.5 0 0 0-36.5-43.3c-30-24.4-65.8-36-107.2-36-25.7 0-50 4.6-72.5 14a177 177 0 0 0-73.8 57l-2.8 4.4a92.8 92.8 0 0 0-23.1-50l-.1-.1a78.4 78.4 0 0 0-58-23.3c-26 0-47.4 10.3-64.7 28.8a42 42 0 0 0-7-16.8c-7.9-10.4-23.2-12.3-34.6-12.3h-.2c-23.5.2-51.2 5.3-82.3 14.6a193.2 193.2 0 0 0-52 22c-.2-9.1-.9-19-7.7-27.2-8-10-20.2-11.5-29.5-11.5h-48.8v-33.6c0-7.7-.7-17-6.6-24.9l.6.6-1.2-1.6.6 1a30.8 30.8 0 0 0-25.7-11.8h-23.8a46 46 0 0 0-21.6 5l-.7.3-134.8 84.8h-.1c-6 3.8-9.9 8.6-12.4 14-2.1-3-4-6.1-6.4-9-11.1-14-25.4-24.8-42.8-24.8-6.4 0-13 1.8-18.7 4l.4-.1a115 115 0 0 1-12.5 4 49 49 0 0 1-7.7-.9l.4.1a307.5 307.5 0 0 0-51.6-6.8c-40.8 0-73.5 13.7-98.4 43.1a109.3 109.3 0 0 0-26.2 73 105 105 0 0 0 25.6 69.7v.1l1 1c-25.9 1.4-38.3 21.2-38.3 46.7 0 3 .3 6.2.6 9.3l-2.4-1.9c-5.1-3.6-7-6.5-7.8-8.3-1.1-3-2.2-9.9-2.2-22.3V520.5c0-21.7-13.2-38.1-36.1-38.1h-3l4-2c20.4-12 32.4-29.7 32.4-53 0-18.5-8.8-32.7-24.2-42.4h.2-.3.1a93.5 93.5 0 0 0-51.1-12.8 207 207 0 0 0-76 16c-28.7 11.5-48.6 29.5-48.6 58.2 0 20 9.4 35.6 26.3 46.2a75 75 0 0 0 35 10.8 521 521 0 0 0-30.3 10.4c-21.1 8.1-36.6 23.3-36.6 46.3 0 20 12.6 34 30.2 41.7 3.7 1.7 4.5 3 4.6 3 .1 1.3.8 11.5 1.6 29v.4c1 17.5 1.4 29 1.4 35a182 182 0 0 1-3.2 40.5c-1.8 7.1-4.2 9.9-5.4 10.8v-.1l-9.4 7.4a81 81 0 0 0-17.5-12.4l.1.1c-8.4-4.6-14.3-8.6-18.2-12a202.1 202.1 0 0 1-19-21h-.1v-.1a1074 1074 0 0 1-45.5-58.7c-7.8-11-13-18.6-16.8-24.6 2-1.5 4.4-3.2 7.5-5.2l.1-.1a78.7 78.7 0 0 1 25.9-13c9.6-1.8 16-2.9 21.3-5.2h-.2.4-.2a39.2 39.2 0 0 0 24.7-36.8 51.8 51.8 0 0 0-35.1-47 221.6 221.6 0 0 0-70.5-9.3c-54.9 0-97.9 12.5-97.9 51.6 0 7.9 2.8 14.8 6.6 20.6a127 127 0 0 1-13.4 8 2049 2049 0 0 1 0-63.8v-.1l2.6-91.6v.3c.9-23.1-15-35.2-36.1-35.2zm1043.8 407.6zm-306 12.3zm-899-368.9h.1l-.2.1h.1zM2274.6 480c-55.9 0-104 16.8-144 51.1a160.4 160.4 0 0 0-58.6 128.3c0 47 15.7 85.2 48.7 115.5 33.4 30.6 76 45.1 127 45.1 52.2 0 98.7-15.4 139.5-46.6 43.4-33.1 66.1-74 66.1-124 0-27.7-6.9-54.2-20.5-79.3a168.7 168.7 0 0 0-52.9-58.7 180.7 180.7 0 0 0-105.3-31.4zm1394 11.2c0 .1 0 .2.2.3l.2.3-.5-.6zm-767.5 1.3.4.2-.1-.1-.3-.1zm944.2 1.5.2.4.3.2-.5-.6zm-170.6 25.6-.1.1h-.1.2zm318.3 14.7zm611.7 15.2v.1l.2.2-.2-.3zm-162.6 20.3c.7 0 .9.3 1.9 2.4v.2c2.4 5 4.4 16.3 4.5 35.1l-5.7.2a280 280 0 0 0-40.5 3c7.9-7 15.4-15 22.3-24.8l-.2.3c6.5-8.9 10-12.8 13-15.2 1-.7 2.4-1.2 3.7-1.2h1zM3263.9 578s2.6 1.3 6.5 4a67.9 67.9 0 0 0-6.7-3.7l.2-.3zm392.9.8a53 53 0 0 0 29.8 23.8c0 .1.6 2.9.6 9.3 0 47.9-1.5 79-4.4 95.3v.5c-.5 2.8-1 3.8-1.1 4-.1 0-2.2 1.8-5 3.8a52.5 52.5 0 0 0-7.3-15.6c-6.3-9.1-15.6-17.2-29.3-17.2-7.2 0-13.5 2.2-19 5.5l.4-.2c-11.4 6.3-17.4 8-20.4 8-2 0-4.4-1-6.4-3.5a26.8 26.8 0 0 1-4.3-16.4V583h47c6.3 0 13.1-1.2 19.4-4.2zm28.4 23.6h-.1zm-1434.4-14.7c2.2.2 5.6 1.6 9.3 9.2a206 206 0 0 1 14.2 46.3v.2c4.3 19.9 6.3 37 6.3 51.7 0 13.6-2.4 13.1-6 13.1-4 0-7-.9-11-11v-.2a355.6 355.6 0 0 1-14.9-50.7 227 227 0 0 1-6-43.8c0-7 1.7-10.8 3.1-12.5 1-1.2 2.9-2.2 5-2.3zm2055.8 16.5c2.4 4.8 5.6 9.4 10 13.5a49.9 49.9 0 0 0 26.6 12.2 133.1 133.1 0 0 0-29 20.6 96 96 0 0 0-28 47c-1-1.5-1.7-3.3-2.8-4.7-4-5.2-9.2-9.9-15.4-13 12-2.4 21.4-9.4 28.4-20v-.2a76.7 76.7 0 0 0 11.2-42.1 98 98 0 0 0-1-13.3zm-2429 .8c8.5 0 12.3 2.3 16 11.7v.2c3.5 8.3 5.9 24.2 5.9 49.2 0 42.3-4 62.8-8.2 68.4-3.7 4.8-6.3 8.3-8.4 11.4a42 42 0 0 0-6-8.8 230 230 0 0 1-9.1-10.7s-1.4-13-2.7-37.5V633c0-16 2.2-23.2 2.8-24.2 1.3-1.8 3.8-3.8 9.7-3.8zm3146.2.6c4.1 0 5.4.8 6.9 5v.2c2.9 7.8 4.4 22.4 4.4 48.3 0 45-3.7 66.2-5 68l-.2.1-5.2 7.6a64 64 0 0 1-8.2-16.2c-.9-4.6-2-23.5-2.6-55.8a399 399 0 0 1 2.3-51.2 8.1 8.1 0 0 1 2.8-4.3 7.4 7.4 0 0 1 4.8-1.7zm-190.5 3.8c2.4 0 9.3 3.6 9.3 37.4 0 21.4-.6 42.7-2 63.8a62.5 62.5 0 0 1-1.7 14.2l-.1.3-.1.3s-.9 1.2-3 3.3c-2.6 2.5-3.4 3.7-5.5 5.7l-.5-1 .1.3c-3-5.6-4.4-10.2-5-14-.6-5.5-1-18.3-1-39.5 0-28.2 1.1-49 3.2-63 1.3-7.7 3-7.8 6.3-7.8zm-863 24.3-.3.3.1-.2h.2zm-812.7 42.8.7.6-.4-.3-.3-.3zm980.4 4.3h97a80.2 80.2 0 0 0-9.7 5.6 84 84 0 0 1-22.9 10.7c-9.8 3-18.1 4.4-25 4.4a50.7 50.7 0 0 1-31.9-12.2c-3.7-3.1-5.5-5.8-7.5-8.5zm-936.2 38.3c6.3 3 6.6 3.4 7.7 4.1-1.5-.2-3.1-.4-4.6-1.3-.6-.4-2.3-2.2-3-2.8zm-1533.6 20.2-.4.5.3-.3.1-.2zm2964.2 34.1-.1.2.1-.2zm209.4 34.7h.2-.2z" transform="translate(-21.2 -21.2) scale(.26458)" fill="#fff"/>
    <path d="M369.9 80.4q11.3 0 21.8 5 5 2.3 7 2.3 1.3 0 4.4-.7 1-.2 2.3-.2 4 0 7 3.7 7.5 9 7.5 22.3 0 9.4-6.5 13.8-3.4 2.3-7.8 2.3-4 0-6.4-1.7-2.5-1.7-4.8-6-3.4-6.2-5.4-8.8-2.1-2.7-5.2-5-7.5-5.2-15.7-5.2-8 0-12.7 5.8-4.7 5.8-4.7 15.5 0 13.3 6.8 24.4 9.1 14.8 26.2 14.8 6.3 0 12.4-2.1 6.2-2.1 9.6-5.4 3-2.8 4.8-2.8 2.7 0 4.7 2.5 1.9 2.5 1.9 6 0 4.6-2.7 10.1-2.7 5.6-6.5 8.8-1.7 1.3-6.8 2.3-3 .6-7.8 2.9-11.5 5.5-23.9 5.5-13 0-25.8-5.8-15-6.8-23.6-20.7-8.6-13.6-8.6-28.4 0-17.2 10.7-31.4 9.3-12.3 24.3-18.8 11.4-5 23.5-5zm98.1 6-1 32.5q-.1 5.8 3.6 5.8 1.8 0 3.6-2.6 7.5-10.9 20-10.9 12.4 0 19.7 7.5 3.3 3.4 4.6 8 1.4 4.5 1.5 13l.7 28q.1 3.7 1 5.4.9 1.7 4.1 4.2 2.3 1.8 2.3 4.3 0 8.4-25.3 8.4-22.5 0-22.5-7.9 0-1.3.4-2l2.7-3.7q3.3-4.3 3.3-21.3 0-10.3-2-15-2.5-6.5-9-6.5-4.8 0-7 3.4-1.7 2.5-1.7 9.3v15q.6 9.9 1 11.2.3 1.3 3.5 4.9 1.5 1.6 1.5 3.8 0 8.8-22.8 8.8-26.7 0-26.7-9.1 0-2.1.9-3.2.8-1.2 4.2-3.5 3-2 4-11.2 1.2-9.2 1.2-30.5 0-16.6-1-23-.3-2.5-1.1-3.6t-3-2.3q-4.9-2.5-4.9-5.7 0-3.9 3.7-6.3 3.6-2.4 14-5.2 13.9-3.9 22.2-3.9 4.5 0 4.3 3.9zm112.6 24.7q14.2 0 25 7.4 7.6 5.3 12.3 13.7 4.8 8.8 4.8 18.5 0 16.8-15.5 28.6-14.7 11.2-33.7 11.2-18.5 0-30-10.5-11.1-10.3-11.1-26.7 0-18.3 13.6-30 14.3-12.2 34.6-12.2zm-6.2 18q-3.4 0-5.5 2.5-2 2.5-2 6.7 0 4.6 1.7 12.7 1.8 8 4.2 14.2 2.4 6.3 7.8 6.3 7 0 7-8.7 0-6.6-1.8-14.9-1.7-8.2-4.2-13.4-2.6-5.3-7.2-5.5zm98.7-42.7-.7 24.3v10.7q0 7.8.2 9.2.5 3.2 3.2 3.2 2.4 0 7.2-3 4.8-3 4.8-4.5 0-.8-1.7-3-1.3-1.7-1.3-3.2 0-8.4 20.6-8.4 10.7 0 17 2.2 2.4.9 4 3 1.7 2 1.7 4.5 0 3.4-3.4 4.8-.7.4-4.5 1-3.4.7-8.8 4.3-5.4 3.6-5.4 5.2 0 1 6.5 10.2 6.6 9.1 12.2 15.9 3.7 4.4 5.7 6.2 2.1 1.7 5.7 3.8 5.6 3 5.6 6.9 0 4-3.5 6.4-3.5 2.3-9.7 2.3h-25q-4.8 0-7.4-3.5l-12.9-16.5q-5.1-6.5-6.3-7.7-1-1.3-1.8-1.3-1 0-1.3 1.4-.3 1.4-.3 5.3 0 3.5.8 5.1.8 1.6 3.5 3.8 2 1.6 2 4.8 0 5.4-5.7 7.8-5.7 2.4-18.9 2.4-15.5 0-20.1-1.3-2.7-.8-4.5-3-1.9-2.5-1.9-5.1 0-3 3.3-5.1 2.7-1.8 3.5-2.7.8-1 1.3-3 1.7-10.8 1.7-33.5v-17q0-8.6-1-11-.8-2.4-4.3-3-6.4-.8-6.4-5.2 0-3 2.8-5.3 2.8-2.4 9.2-4.7 20.3-7.5 30-7.5 4.5 0 4.3 3.8zm114.7 30.2v45q0 5.3 1 7.8t4 4.6q2.3 1.7 3.1 3 .9 1.1.9 3 0 10-25.4 10-13.6 0-21.6-2.2-2.7-.8-4.4-2.7-1.7-2-1.7-4.4 0-2.1.9-3.3.8-1.2 4.3-3.7 2.4-1.8 3.4-5.8t1-12l-.3-9.6-.5-8.2q-.5-3.2-4.3-4.9-4.9-2-4.9-6.2 0-4.9 6.3-7.3 8.7-3.3 18.6-5.6 10-2.4 15.4-2.4 4.2 0 4.2 4.9zm-15.3-34q6.7 0 10.7 2.6 4 2.4 4 6.7 0 6-6 9.5-9.5 5.5-22.9 5.5-5.7 0-9-2.2-4.5-2.8-4.5-7.8 0-6.6 9.6-10.4 9.6-3.9 18-3.9zm59.8 28.6q4 0 12.7 1.7 1.8.3 3 .3t5-1.4q1.8-.7 3-.7 3.6 0 7.3 4.6 3 3.6 4.8 8 1.8 4.3 1.8 7.5 0 3.1-2.1 5.2-2.2 2-5.5 2-2.7 0-4.9-1.3-2-1.3-6.8-5.8-5-4.8-8.2-4.8-2.2 0-3.8 1.6-1.5 1.6-1.5 3.7 0 3.8 7.2 7.2 13.1 5.8 20.1 12.8 6 6 6 14.4 0 10.8-9.5 18-8.2 6.3-20 6.3-3 0-11-1l-8.4-.9q-1 0-2.3.3l-3.3.3q-3.6 0-5.7-1.9-3.2-2.8-6-9-2.6-6.2-2.6-10.6 0-7.1 5.5-7.1 2.2 0 4 1.5 1.9 1.3 7.7 7.6 3.1 3.4 5.2 4.7 2.1 1.2 4.5 1.2 2.6 0 4.1-1.3 1.6-1.4 1.6-3.6 0-3.5-6-6.4-12.5-6.1-18-12.6t-5.5-15q0-9.3 5.6-16 8-9.5 22-9.5zm91.2 20.3v26.2q0 4.7 2.2 7.6 2.4 3 6 3 3 0 8-2.8 1-.7 2.2-.7 1.9 0 3.5 2.2 1.5 2.3 1.5 4.9 0 4.8-5.3 9.2-11 9.4-26.6 9.4-12.4 0-20-7-7.5-7-7.5-18.5v-35.8q0-1.8-.4-2.2-.4-.4-2.2-.4h-8q-2.2 0-2.9-.7-.6-.8-.6-3.5V119q0-2.4 1.8-3.5l35.5-22.3q1.3-.7 3.3-.7h6.2q2 0 2.6 1 .7.8.7 3.4v10.5q0 2.3.7 3 .8.7 3.2.7h14.3q2.9 0 3.7 1.1.9 1 .9 4.4v4.6q0 3.7-1.1 5.2-1 1.4-4 1.4h-14q-2.2 0-3 .8-.7.7-.7 3zm63.6-19.8q4.1 0 5 1.1 1 1.2 1.6 7.5.4 3.4 2.4 3.4 1.6 0 3-2.3 6.2-9.7 16.2-9.7 7 0 11.5 4.6 2.2 2.3 3.6 5.8t1.4 6.8q0 3.6-1.7 7.5-1.7 3.8-4.4 6.3-5 4.7-12.2 4.7-4 0-6.7-1.4-2.6-1.4-7-5.6-1.6-1.7-3-1.7-2.1 0-2.8 2.5-.7 2.4-.7 10.2 0 11.7.9 16 .5 2.3 1.5 3.3 1 .8 4.1 1.7 7 2.1 7 7.3 0 3.2-2.2 5.6-2.3 2.3-6 3.1-7.4 1.6-21.9 1.6-13.7 0-20.8-2.4-6.4-2.2-6.4-7.6 0-4 4.7-7.2 2.2-1.4 3-2.6 1-1.2 1.3-3.3 1.2-7 1.2-26.2 0-3.5-.8-5t-3-2.4q-5.6-2.2-5.6-6.3 0-3.7 3.8-6.3 3.8-2.8 12.7-5.4 12-3.6 20.3-3.6zm118.6 42h-36.4q-2.4 0-2.4 2 0 5.1 5.4 9.6 5.5 4.4 11.8 4.4 3.7 0 8.2-1.4 4.6-1.4 7.5-3.5 2.7-1.9 4.2-1.9 2 0 4 2.5t2 5.1q0 5.6-7 10.8-12.4 9.2-28.5 9.2-16.3 0-27.3-9.5-5.3-4.6-8.8-11.2-4.6-8.8-4.6-18.4 0-13 7.9-23.5 6.8-9 17.4-13.4 7.9-3.3 17.1-3.3 14.7 0 25 8.4 5.2 4.2 8.4 9.9 3.6 6.5 3.6 12.7 0 5-2 8.3-2.1 3.2-5.5 3.2zm-34.4-14.5h7.8q5 0 5-4.6 0-4.2-2.4-6.8-2.4-2.6-6.3-2.6-4.3 0-6.8 3.4-2.3 3.1-2.3 6.4 0 2.3 1 3.3 1.2.9 4 .9zm91.2-28.1q13.5 0 23 6.8 4.9 3.7 6.8 8.4 2 4.7 2 12.9l-.1 11.5q0 12 1.7 15.6.8 1.7 1.6 2.2.8.5 3.3.8 2.4.4 2.4 3.3 0 3.7-3 7.7t-7.7 6.8q-5.8 3.4-12.1 3.4-8.2 0-12.9-5.6-1.6-2-3-2-1.6 0-4.1 2-7.8 5.6-17.6 5.6-10.2 0-16.5-4.3-4-3-6.5-7.5-2.4-4.6-2.4-9.7 0-8 6.5-14.2 10.2-9.8 30.4-9.9 4.5 0 5.7-.8 1.2-1 1.2-4.2 0-8.2-1.8-11.9-1.7-3.7-5.5-3.7-2.4 0-4.2 1.4-1.8 1.4-4.5 5.1-7 9.9-14.4 9.9-3.8 0-6.2-2.3-2.4-2.2-2.4-5.9t3-7.4q3-3.7 8-6.5 14-7.5 29.3-7.5zm-5.1 45q-3.5 0-6 2.7-2.5 2.8-2.5 6.7 0 3.7 1.8 6t4.7 2.3q6.2 0 6.2-10.5 0-4.3-1-5.7-.8-1.5-3.2-1.6zm88.5-44.4q4.4 0 4.4 6.3v3.3q0 4.2 2.4 4.2 1.3 0 4.1-3.3 4.2-4.8 10.5-7.6 6.4-2.9 13-2.9 13 0 18 9.5 2 3.5 3.2 3.5.9 0 4-3.1 10.1-9.9 23-9.9 10 0 16.3 5.6 6.6 5.7 6.6 17.2l-.1 8.3q-.2 2-.2 12.2v9.1l-.1 2.4q0 5 3 8.7 2 2.2 2.3 3 .5.7.5 2 0 9.8-23.3 9.8-10.3 0-16.7-2.4-6.3-2.5-6.3-6.6 0-1.5.4-2.3l3-4.3q2.4-3.2 2.4-21.2 0-10.4-1.4-14.6-1.7-4.8-6.9-4.8-2.5 0-4.5 1.6-2 1.5-2.6 4-.7 2.7-.8 14.8.3 13 .8 15.8.6 2.8 4 7.8.7 1.2.7 3 0 9.2-24 9.2-14.6 0-19.6-2.2-4-1.7-4-6 0-2 .4-2.8l3.5-3.5q1.7-1.7 2.2-3 .5-1.5.8-5.3.5-8.6.5-17.2 0-15.2-7.7-15.2-5.9 0-7 6.5-.9 6.1-.9 17.5 0 8.5.3 11.2.4 2.6 2 5.5 1.8 3.3 1.8 5.4 0 5-7 7-7.7 2-17 2-11.9 0-17.4-1.8-5.6-2-5.6-6 0-1.6.7-2.7.8-1 3.4-3.4 3.5-3.2 4-8.8.9-9.6.9-19.9 0-7.3-.8-10.2-.7-3-3.1-4.7-2.3-1.8-3-2.7-.6-1-.6-2.6 0-5.2 8.1-8.2 19.6-7 29.4-7.2z" aria-label="Chokistream" fill="#ed1c24"/>
  </g>
</svg>
