<svg width="1024" height="1024" version="1.1" viewBox="0 0 271 271" xmlns="http://www.w3.org/2000/svg">
 <circle cx="135" cy="135" r="135" fill="#d1b139"/>
 <circle cx="135" cy="135" r="122.5" fill="#ed1c24"/>
 <circle cx="135" cy="135" r="110" fill="#561f00"/>
 <path d="m134 140c-10.8 0-20.5 3.3-28.3 9.8-3.6 2.9-6.4 6.4-8.4 10.5s-3 8.3-3 12.6c0 7.5 3 14.5 8.5 20.4-4.2-.2-6.7 1.5-8.5 3.7s-2.3 4.8-2.3 7.5c0 4.8.9 9.6 2.6 14.5s3.7 8.5 7.2 10.9 8.1 3.8 14.2 5.1 12 1.9 17.6 1.9c12.5 0 23.3-3.1 31.5-9.5s12.5-15.1 12.5-25.2-4.8-17.9-13.1-23.6c3.1-.1 6.3-1.6 8.3-4s3.3-5.7 3.3-8.9c0-5.2-2-10.3-5.5-15.2s-7.3-8.5-12.5-8.5C154.6 142 152.5 143.3 152.1 143.5c-7.5-2.3-13.4-3.5-18.1-3.5zm5.3 24.9c3.3 0 7 1.6 11.3 5.6l2.9 2.7-11.1-3.5c-2.8-.8-4.5-1.8-5.3-2.4s-.9-1.4-.4-1.8c.4-.3 1.1-.6 2.6-.6zm-26.1 36.5 2.2 1.2c3.5 1.7 8.1 3.4 14.1 5.3 3 .9 5 2 5.6 2.5.4.3.5.6 0 .9-.9.6-2.5 1-5 1s-5.6-.6-8.3-1.9-4.3-2.6-5.3-4l-3.3-5z" fill="#fff"/>
 <path d="m134 145c-9.9 0-18.4 2.9-25.3 8.7-3.1 2.5-5.5 5.5-7.2 8.9s-2.5 6.9-2.5 10.5c0 7.3 3.3 13.8 9.7 19.6 2.7 2.3 5.5 4.3 8.6 5.8s7.6 3.2 13.4 5c3.3 1 5.7 2.1 7.2 3.3s2.2 2.6 2.2 4.3-.9 3.2-2.8 4.4-4.3 1.7-7.4 1.7-7-.8-10.3-2.3-5.7-3.4-7.2-5.7c-3.2-4.9-5.2-7.8-6.1-8.7-1.4-1.6-2.9-2.4-4.5-2.4s-2.9.7-3.9 2-1.2 2.5-1.2 4.6c0 4.2.8 8.5 2.3 12.9s3.4 7.3 5.4 8.6c2.6 1.7 6.8 3.2 12.6 4.4s11.4 1.9 16.6 1.9c11.8 0 21.3-2.8 28.7-8.5s10.7-12.7 10.7-21.4c0-9.9-5.2-17.4-15.7-22.5-2.3-1.1-7.8-3-16.3-5.5-6.3-1.8-9.4-4.5-9.4-8.1 0-1.8.7-3.3 2-4.4s3.3-1.7 5.5-1.7c4.8 0 9.6 2.3 14.5 6.9s5.8 5.2 6.8 5.8 2.4 1 4 1 3.6-.8 5-2.3 2.1-3.5 2.1-5.8c0-3.9-1.5-8.1-4.6-12.4s-5.9-6.5-8.7-6.5c-.7 0-1.4.1-2.1.4-2 .7-3.3 1.1-3.7 1.1s-1.1-.1-2-.4c-6.9-2.1-12.4-3.2-16.4-3.2z" fill="#ed1c24"/>
 <path d="m139 33.6c-7 0-14 1.5-20.6 4.3-8.6 3.7-15.7 9.3-21.2 16.5s-9.4 17.7-9.4 27.8 2.6 17.2 7.5 25.1 12.1 14.3 20.8 18.2 14.9 5 22.5 5 14.3-1.6 21-4.8c2.4-1.1 4.2-1.8 5-1.9 3.1-.6 5.2-1 7.5-2.8 2.7-2.2 4.8-5.1 6.5-8.5s2.6-6.7 2.6-10.1-.8-5.5-2.5-7.7-4.5-3.9-7.4-3.9-5.1 1.7-7.1 3.5-3.1 2.4-5.9 3.3-5.5 1.4-8.3 1.4c-7.7 0-12.7-2.8-16.8-9.5-3.1-5.2-4.7-10.7-4.7-16.9 0-4.4 1-7.3 2.6-9.3s3.4-2.9 6.5-2.9 6.5 1 9.8 3.3c1.3.9 2.3 1.9 3.1 2.9s2.2 3.2 3.9 6.4c1.4 2.7 3 4.9 5.3 6.5s5 2.2 7.8 2.2 6.2-.9 8.8-2.6c4.7-3.2 7.2-8.8 7.2-14.8 0-7.9-2.3-15.1-7-20.7-2.3-2.8-5.7-4.7-9.3-4.7-1 0-1.9.1-2.9.3-1.3.3-2 .4-2.4.4s-1.6-.4-3.7-1.4c-6.2-2.9-12.7-4.4-19.2-4.6z" fill="#fff"/>
 <path d="m139 38.3c-6.4.2-12.6 1.3-18.7 3.9-7.9 3.5-14.4 8.4-19.3 15s-8.5 15.8-8.5 25 2.3 15.4 6.8 22.6 10.9 12.9 18.8 16.5 13.7 4.6 20.5 4.6 12.9-1.5 19-4.4c2.6-1.2 4.7-2 6.2-2.3 2.7-.5 4.5-1.1 5.4-1.9 2-1.7 3.7-4 5.2-7s2.2-5.6 2.2-8-.5-3.5-1.5-4.8c-1-1.4-2.6-2-3.7-2s-2.3.7-3.8 2.2-4.3 3.2-7.6 4.3-6.5 1.7-9.9 1.7c-9 0-16-3.9-20.8-11.8-3.6-5.9-5.4-12.3-5.4-19.4 0-5.1 1.2-9.2 3.7-12.3s5.9-4.6 10.1-4.6 8.5 1.4 12.5 4.2c1.6 1.1 3 2.4 4.1 3.9s2.5 3.7 4.3 7c1.2 2.3 2.5 3.9 3.8 4.8s3 1.4 5.1 1.4 4.4-.7 6.2-1.9c3.4-2.3 5.1-5.9 5.1-10.9 0-7.1-2-13-5.9-17.7-1.6-2-3.5-3-5.6-3-.7 0-1.4.1-1.8.2-1.6.4-2.8.6-3.6.6s-2.9-.6-5.5-1.9c-5.6-2.6-11.4-3.9-17.4-4z" fill="#ed1c24"/>
</svg>